{"title":"The Twilight Saga Eclipse-AC3-XviD-BRRip[Eng]2010","uid":5963465,"size":1570040515,"categoryP":"video","categoryS":"movies","magnet":"?xt=urn:btih:4fd068c174dc65a38a916194b544e801f99b26b1&amp;dn=The+Twilight+Saga+Eclipse-AC3-XviD-BRRip%5BEng%5D2010&amp;tr=udp%3A%2F%2Ftracker.openbittorrent.com%3A80&amp;tr=udp%3A%2F%2Fopen.demonii.com%3A1337&amp;tr=udp%3A%2F%2Ftracker.coppersurfer.tk%3A6969&amp;tr=udp%3A%2F%2Fexodus.desync.com%3A6969","seeders":0,"leechers":1,"uploader":"FatFreddy31","files":-1,"time":1290029009,"description":"As a string of mysterious killings grips Seattle, Bella, whose high school graduation is fast approaching, is forced to choose between her love for vampire Edward and her friendship with werewolf Jacob..\n &lt;a href=&quot;\nhttp://www.imdb.com/title/tt1325004/&quot; rel=&quot;nofollow&quot; target=&quot;_NEW&quot;&gt;\nhttp://www.imdb.com/title/tt1325004/&lt;/a&gt;\n\nSubtitles (srt) : Dutch, English.\n\nCovers included.\n\nBella Swan (Kristen Stewart) is wederom omcirkeld met gevaar als Seattle wordt geteisterd door een opeenvolging van geheimzinnige moorden en een kwaadwillige vampier die haar zoektocht naar wraak voortzet. In het midden van dit alles wordt zij gedwongen om tussen haar liefde voor Edward (Robert Pattinson) en haar vriendschap met Jacob (Taylor Lautner) te kiezen - wetend dat haar besluit de potentie heeft om de eeuwige strijd tussen vampier en weerwolf opnieuw aan te wakkeren. Terwijl haar eindexamen snel naderbij komt, wordt Bella geconfronteerd met het belangrijkste besluit van haar leven.\n &lt;a href=&quot;\nhttp://www.moviemeter.nl/film/60820&quot; rel=&quot;nofollow&quot; target=&quot;_NEW&quot;&gt;\nhttp://www.moviemeter.nl/film/60820&lt;/a&gt;\n\nOndertitels (srt) : Engels, Nederlands.\n\nHoesjes bijgevoegd.\n\nGeneral\nComplete name                    : The Twilight Saga Eclipse-AC3-XviD-BRRip[Eng]2010\\The Twilight Saga Eclipse-AC3-XviD-BRRip[Eng]2010.avi\nFormat                           : AVI\nFormat/Info                      : Audio Video Interleave\nFile size                        : 1.46 GiB\nDuration                         : 2h 3mn\nOverall bit rate                 : 1 688 Kbps\nWriting application              : VirtualDubMod 1.5.4.1 (build 2178/release)\nWriting library                  : VirtualDubMod build 2178/release\nSource                           : The.Twilight.Saga.Eclipse.720p.Bluray.x264-CBGB\n\nVideo\nID                               : 0\nFormat                           : MPEG-4 Visual\nFormat profile                   : Simple@L3\nFormat settings, BVOP            : No\nFormat settings, QPel            : No\nFormat settings, GMC             : No warppoints\nFormat settings, Matrix          : Default (H.263)\nCodec ID                         : XVID\nCodec ID/Hint                    : XviD\nDuration                         : 2h 3mn\nBit rate                         : 1 231 Kbps\nWidth                            : 720 pixels\nHeight                           : 304 pixels\nDisplay aspect ratio             : 2.35:1\nFrame rate                       : 23.976 fps\nResolution                       : 8 bits\nColorimetry                      : 4:2:0\nScan type                        : Progressive\nBits/(Pixel*Frame)               : 0.235\nStream size                      : 1.07 GiB (73%)\nWriting library                  : XviD 1.1.2 (UTC 2006-11-01)\n\nAudio\nID                               : 1\nFormat                           : AC-3\nFormat/Info                      : Audio Coding 3\nCodec ID                         : 2000\nDuration                         : 2h 3mn\nBit rate mode                    : Constant\nBit rate                         : 448 Kbps\nChannel(s)                       : 6 channels\nChannel positions                : Front: L C R, Surround: L R, LFE\nSampling rate                    : 48.0 KHz\nStream size                      : 397 MiB (27%)\nAlignment                        : Split accross interleaves\nInterleave, duration             : 42 ms (1.00 video frame)\nInterleave, preload duration     : 500 ms\n\nThanks to Bradje for the source...","torrent":{"xt":"urn:btih:4fd068c174dc65a38a916194b544e801f99b26b1","amp;dn":"The+Twilight+Saga+Eclipse-AC3-XviD-BRRip%5BEng%5D2010","amp;tr":["udp%3A%2F%2Ftracker.openbittorrent.com%3A80","udp%3A%2F%2Fopen.demonii.com%3A1337","udp%3A%2F%2Ftracker.coppersurfer.tk%3A6969","udp%3A%2F%2Fexodus.desync.com%3A6969"],"infoHash":"4fd068c174dc65a38a916194b544e801f99b26b1","infoHashBuffer":{"type":"Buffer","data":[79,208,104,193,116,220,101,163,138,145,97,148,181,68,232,1,249,155,38,177]},"announce":[],"urlList":[]}}